# xmcd
#
# Track frame offsets:
#	150
#	15315
#	34983
#	56992
#	75729
#	96689
#	114782
#	130852
#	149247
#	171957
#	191758
#	203784
#	223060
#	240888
#
# Disc length: 3403 seconds
#
# Revision: 2
# Processed by: cddbd v1.5.2PL0 Copyright (c) Steve Scherf et al.
# Submitted via: audiograbber 1.83.01
#
DISCID=ce0d490e
DTITLE=Soundhotel - Your place
DYEAR=2004
DGENRE=Soul
TTITLE0=Wonderful
TTITLE1=2nd time around
TTITLE2=Reason
TTITLE3=It all melts away
TTITLE4=A beautiful day
TTITLE5=Quiet man
TTITLE6=Freedom
TTITLE7=Stay a while
TTITLE8=It's not the same
TTITLE9=Me reloaded (Back to me)
TTITLE10=Symphony
TTITLE11=Your place
TTITLE12=It's over now
TTITLE13=Wonderful (Acoustic version)
EXTD=
EXTT0=
EXTT1=
EXTT2=
EXTT3=
EXTT4=
EXTT5=
EXTT6=
EXTT7=
EXTT8=
EXTT9=
EXTT10=
EXTT11=
EXTT12=
EXTT13=
PLAYORDER=
